<svg xmlns="http://www.w3.org/2000/svg" viewBox="0 0 485.21 356.71"><defs><style>.cls-1{isolation:isolate;}.cls-2{fill:#c7e4f2;}.cls-3{fill:#5998c8;}.cls-12,.cls-4{fill:#fff;}.cls-5{fill:#6aa8ce;}.cls-6{fill:#c7d8e2;}.cls-7{fill:#dce8ef;}.cls-8{fill:#f0f7f7;}.cls-9{fill:#cee8ef;}.cls-10{fill:#b2cad3;}.cls-11{fill:#799dd3;}.cls-12{opacity:0.3;}.cls-13{fill:#cad3db;}.cls-14{fill:#25648c;}.cls-15{fill:#a5bdd6;}.cls-16{fill:#c4cbd6;}.cls-17{fill:#ed9558;}.cls-18{fill:#eace59;}.cls-19{fill:#b5b5b5;}.cls-20,.cls-22{fill:#c8cdce;}.cls-21{fill:#eff4f4;}.cls-22{mix-blend-mode:multiply;}.cls-23{fill:#e2e2e2;}.cls-24{fill:#d6ddea;}.cls-25{fill:#ed8c62;}.cls-26{fill:#ffaf84;}.cls-27{fill:#e8e8e8;}.cls-28{fill:#3962a8;}.cls-29{fill:#2d548c;}.cls-30{fill:#658bc1;}.cls-31{fill:#c8d6db;}.cls-32{fill:#82aace;}.cls-33{fill:#4e7caf;}.cls-34{fill:#424344;}</style></defs><title>communications</title><g class="cls-1"><g id="Capa_1" data-name="Capa 1"><path class="cls-2" d="M176.33,126.3a3,3,0,0,0,3-3,2.93,2.93,0,0,0-.57-1.75,3,3,0,0,0-4.86,0,2.93,2.93,0,0,0-.57,1.75A3,3,0,0,0,176.33,126.3Z"/><polygon class="cls-2" points="182.88 119.63 182.88 117.11 182.88 116.74 182.5 116.74 179.99 116.75 180 119.64 182.88 119.63"/><path class="cls-2" d="M176.33,108.31a15,15,0,1,0,15,15A15,15,0,0,0,176.33,108.31Zm8.52,13.24v7a3.3,3.3,0,0,1-3.29,3.3H171.1a3.29,3.29,0,0,1-3.29-3.3V118.07a3.29,3.29,0,0,1,3.29-3.29h10.46a3.29,3.29,0,0,1,3.29,3.29Z"/><path class="cls-2" d="M181,123.3a4.66,4.66,0,1,1-9-1.75h-2.54v7a1.63,1.63,0,0,0,1.63,1.64h10.46a1.63,1.63,0,0,0,1.63-1.64v-7h-2.55A4.45,4.45,0,0,1,181,123.3Z"/><circle class="cls-3" cx="37.75" cy="273.98" r="17.72"/><path class="cls-4" d="M42.2,274.67H39v11.59H34.25V274.67H32V270.6h2.28V268c0-1.89.89-4.84,4.83-4.84l3.55,0v4H40.06a1,1,0,0,0-1,1.11v2.39h3.58Z"/><path class="cls-5" d="M144.44,71.76A18.28,18.28,0,1,0,162.72,90,18.28,18.28,0,0,0,144.44,71.76Zm9.65,26.67-1.46,1.46a2.71,2.71,0,0,1-1,.42,17.26,17.26,0,0,1-17.42-17.46,2.77,2.77,0,0,1,.43-1l1.46-1.46a2.46,2.46,0,0,1,2.29-.54l.31.1a2.92,2.92,0,0,1,1.67,1.77l.73,2.7a2.65,2.65,0,0,1-.6,2.31l-1,1a10.39,10.39,0,0,0,7.3,7.3l1-1a2.65,2.65,0,0,1,2.31-.6l2.7.73a3,3,0,0,1,1.77,1.67l.1.32A2.44,2.44,0,0,1,154.09,98.43Z"/><path class="cls-6" d="M277.73,144.44l-32.1,93.37a3,3,0,0,1-3.83,1.87l-52.21-18a3,3,0,0,1-1.87-3.83l32.1-93.37a3,3,0,0,1,3.83-1.88l52.21,17.95A3,3,0,0,1,277.73,144.44Z"/><path class="cls-7" d="M280.08,145.25,248,238.61a3,3,0,0,1-3.83,1.87l-52.21-17.95a3,3,0,0,1-1.87-3.82l32.1-93.37a3,3,0,0,1,3.83-1.88l52.21,18A3,3,0,0,1,280.08,145.25Z"/><path class="cls-8" d="M273.43,147.4l-12.2,35.47h0l-9.94,29h0L246.75,225l-1.06,3.1a1.62,1.62,0,0,1-2.07,1l-24.94-8.58-19.32-6.64a1.64,1.64,0,0,1-1-2.07l11.84-34.44,15.9-46.25a1.63,1.63,0,0,1,2-1l.1,0,7.54,2.59,16.79,5.77,19.92,6.85A1.62,1.62,0,0,1,273.43,147.4Z"/><path class="cls-6" d="M218.89,229.06h0a2.83,2.83,0,0,1-1.76-3.6h0a2.83,2.83,0,0,1,3.6-1.76h0a2.83,2.83,0,0,1,1.76,3.6h0A2.83,2.83,0,0,1,218.89,229.06Z"/><path class="cls-6" d="M231.69,129.59h0a1.16,1.16,0,0,1-.72-1.46h0a1.15,1.15,0,0,1,1.47-.71h0a1.14,1.14,0,0,1,.71,1.46h0A1.15,1.15,0,0,1,231.69,129.59Z"/><path class="cls-9" d="M242.14,207.34l-1.29-.45,1.92-5.59a10.33,10.33,0,0,0-.48-7.94l-3.54-7.25a4.63,4.63,0,0,1,2.13-6.19l7.24-3.54a10.32,10.32,0,0,0,5.27-6l1.93-5.6,1.28.44-1.92,5.6a11.69,11.69,0,0,1-6,6.74l-7.25,3.54a3.28,3.28,0,0,0-1.5,4.38l3.54,7.24a11.67,11.67,0,0,1,.55,9Z"/><path class="cls-9" d="M215.19,198.07l-1.28-.44,1.92-5.59a11.66,11.66,0,0,1,6-6.74l7.24-3.54a3.28,3.28,0,0,0,1.51-4.38L227,170.13a11.67,11.67,0,0,1-.55-9l1.92-5.59,1.29.44-1.93,5.59a10.35,10.35,0,0,0,.49,7.95l3.54,7.24a4.64,4.64,0,0,1-2.13,6.2l-7.25,3.54a10.36,10.36,0,0,0-5.27,6Z"/><path class="cls-10" d="M256.78,166.69a1.41,1.41,0,0,1-.44-.08l-28.59-9.83a1.36,1.36,0,1,1,.88-2.57L257.22,164a1.36,1.36,0,0,1-.44,2.65Z"/><path class="cls-10" d="M242.32,208.76a1.32,1.32,0,0,1-.44-.08l-28.6-9.83a1.36,1.36,0,0,1,.89-2.57l28.59,9.83a1.36,1.36,0,0,1-.44,2.65Z"/><path class="cls-11" d="M230.46,166.77l5.33,10.91a1,1,0,0,0,1.36.47l10.91-5.33a1,1,0,0,0-.12-1.87l-16.24-5.59A1,1,0,0,0,230.46,166.77Z"/><path class="cls-11" d="M225.61,196l4.65-2.27a1,1,0,0,1,1.36.46l2.27,4.66a1,1,0,0,1-1.24,1.4l-6.93-2.38A1,1,0,0,1,225.61,196Z"/><path class="cls-11" d="M233.18,190.89a1.11,1.11,0,1,1-.69-1.41A1.11,1.11,0,0,1,233.18,190.89Z"/><path class="cls-11" d="M234.75,186.32a1.11,1.11,0,1,1-.69-1.41A1.11,1.11,0,0,1,234.75,186.32Z"/><path class="cls-11" d="M236.32,181.75a1.11,1.11,0,0,1-1.41.68,1.1,1.1,0,1,1,1.41-.68Z"/><path class="cls-12" d="M246.75,225l-1.06,3.1a1.62,1.62,0,0,1-2.07,1l-24.94-8.58-8.5-43.15,15.9-46.25a1.63,1.63,0,0,1,2-1Z"/><polygon class="cls-12" points="261.23 182.87 261.23 182.88 251.29 211.83 235.7 132.71 252.49 138.48 261.23 182.87"/><path class="cls-13" d="M272.7,227.34l2.64,27.23a2.69,2.69,0,0,1-2.41,2.93l-37.31,3.62a2.68,2.68,0,0,1-2.93-2.42l-2.64-27.22a2.67,2.67,0,0,1,2.41-2.93l37.31-3.62A2.69,2.69,0,0,1,272.7,227.34Z"/><path class="cls-2" d="M273.29,222.69l4.37,27a2.69,2.69,0,0,1-2.22,3.08l-37,6a2.68,2.68,0,0,1-3.07-2.22l-4.37-27a2.67,2.67,0,0,1,2.22-3.07l37-6A2.68,2.68,0,0,1,273.29,222.69Z"/><path class="cls-3" d="M273.29,222.69l1,6L232,235.52l-1-6a2.67,2.67,0,0,1,2.22-3.07l37-6A2.68,2.68,0,0,1,273.29,222.69Z"/><rect class="cls-4" x="231.84" y="232.09" width="42.85" height="1.97" transform="matrix(0.99, -0.16, 0.16, 0.99, -33.98, 43.44)"/><path class="cls-14" d="M244.17,228a3.21,3.21,0,1,1-3.68-2.66A3.21,3.21,0,0,1,244.17,228Z"/><path class="cls-14" d="M266.62,224.35a3.21,3.21,0,1,1-3.68-2.66A3.22,3.22,0,0,1,266.62,224.35Z"/><path class="cls-14" d="M241,230.68a2.18,2.18,0,0,1-2.16-1.84l-.76-4.69a2.19,2.19,0,1,1,4.33-.7l.76,4.69a2.2,2.2,0,0,1-1.82,2.52A2.06,2.06,0,0,1,241,230.68Z"/><path class="cls-14" d="M263.45,227.05a2.18,2.18,0,0,1-2.16-1.84l-.76-4.69a2.19,2.19,0,1,1,4.33-.7l.76,4.69A2.19,2.19,0,0,1,263.8,227,2.07,2.07,0,0,1,263.45,227.05Z"/><rect class="cls-15" x="237.95" y="239.68" width="4.17" height="3.54" transform="translate(-35.5 41.46) rotate(-9.2)"/><rect class="cls-15" x="266.37" y="235.08" width="4.17" height="3.54" transform="translate(-34.39 45.93) rotate(-9.19)"/><rect class="cls-15" x="259.27" y="236.23" width="4.17" height="3.54" transform="translate(-34.67 44.81) rotate(-9.19)"/><rect class="cls-15" x="252.16" y="237.38" width="4.17" height="3.54" transform="translate(-34.94 43.69) rotate(-9.19)"/><rect class="cls-15" x="245.06" y="238.53" width="4.17" height="3.54" transform="translate(-35.22 42.57) rotate(-9.19)"/><rect class="cls-15" x="238.87" y="245.36" width="4.17" height="3.54" transform="translate(-36.39 41.67) rotate(-9.19)"/><rect class="cls-15" x="267.29" y="240.76" width="4.17" height="3.54" transform="translate(-35.29 46.15) rotate(-9.19)"/><rect class="cls-15" x="260.19" y="241.91" width="4.17" height="3.54" transform="translate(-35.57 45.05) rotate(-9.2)"/><rect class="cls-15" x="253.08" y="243.06" width="4.17" height="3.54" transform="translate(-35.84 43.91) rotate(-9.19)"/><rect class="cls-15" x="245.98" y="244.21" width="4.17" height="3.54" transform="translate(-36.11 42.79) rotate(-9.19)"/><rect class="cls-15" x="239.79" y="251.04" width="4.17" height="3.54" transform="translate(-37.28 41.89) rotate(-9.19)"/><rect class="cls-15" x="268.21" y="246.44" width="4.17" height="3.54" transform="translate(-36.18 46.37) rotate(-9.19)"/><rect class="cls-15" x="261.11" y="247.59" width="4.17" height="3.54" transform="translate(-36.46 45.25) rotate(-9.19)"/><rect class="cls-15" x="254" y="248.74" width="4.17" height="3.54" transform="translate(-36.73 44.13) rotate(-9.19)"/><rect class="cls-15" x="246.89" y="249.89" width="4.17" height="3.54" transform="translate(-37.01 43.01) rotate(-9.19)"/><circle class="cls-16" cx="64.13" cy="208.03" r="8.51"/><path class="cls-16" d="M102.64,160.15a4.68,4.68,0,1,1,4.67-4.67A4.68,4.68,0,0,1,102.64,160.15Zm0-6.91a2.24,2.24,0,1,0,2.23,2.24A2.24,2.24,0,0,0,102.64,153.24Z"/><path class="cls-17" d="M71.08,160.81l-11.23,22a2.47,2.47,0,0,0,1.08,3.33l42.36,21.63a2.49,2.49,0,0,0,3.33-1.08l11.23-22a2.5,2.5,0,0,0,.1-2,2.41,2.41,0,0,0-1.19-1.33L74.41,159.73a2.49,2.49,0,0,0-3.33,1.08Z"/><path class="cls-18" d="M72.64,159.55l10.6,23.37a8.63,8.63,0,0,0,9.56,4.89L118,182.69a2.41,2.41,0,0,0-1.19-1.33L74.41,159.73A2.49,2.49,0,0,0,72.64,159.55Z"/><path class="cls-3" d="M100,145.58l6.74,15.85a1.72,1.72,0,0,0,2.26.91l30.52-13a1.73,1.73,0,0,0,.92-2.26l-6.75-15.85a1.73,1.73,0,0,0-2.26-.91l-30.52,13a1.67,1.67,0,0,0-.89.86A1.71,1.71,0,0,0,100,145.58Z"/><path class="cls-2" d="M100.05,144.18,117.3,149a6,6,0,0,0,6.89-2.93l8.51-15.75a1.72,1.72,0,0,0-1.24,0l-30.52,13A1.67,1.67,0,0,0,100.05,144.18Z"/><path class="cls-19" d="M126.43,172.49h-1.58v1.57a1.29,1.29,0,0,1-2.57,0v-1.57h-1.57a1.29,1.29,0,1,1,0-2.58h1.57v-1.57a1.29,1.29,0,0,1,2.57,0v1.57h1.58a1.29,1.29,0,0,1,0,2.58Z"/><path class="cls-2" d="M69.37,332.19a21.29,21.29,0,1,1,21.3-21.29A21.3,21.3,0,0,1,69.37,332.19Zm0-34A12.75,12.75,0,1,0,82.13,310.9,12.76,12.76,0,0,0,69.37,298.15Z"/><path class="cls-20" d="M53.23,267.56a.61.61,0,0,1-.61-.61,85.62,85.62,0,0,1,2-18.51,84.53,84.53,0,0,1,9-23.34.61.61,0,1,1,1.06.6,83.15,83.15,0,0,0-8.82,23,84.47,84.47,0,0,0-2,18.25A.61.61,0,0,1,53.23,267.56Z"/><path class="cls-20" d="M56,289.19a.61.61,0,0,1-.59-.45c-.64-2.44-1.18-4.94-1.61-7.43a.61.61,0,0,1,.5-.7.62.62,0,0,1,.71.5c.41,2.45.95,4.92,1.58,7.31a.62.62,0,0,1-.44.75Z"/><path class="cls-3" d="M216.8,267a79,79,0,1,1-79-79A79,79,0,0,1,216.8,267Z"/><path class="cls-19" d="M209.12,267a71.37,71.37,0,0,1-46.31,66.8,69,69,0,0,1-8.57,2.6,70.53,70.53,0,0,1-16.41,1.91A71.3,71.3,0,0,1,98.35,207.57a67.76,67.76,0,0,1,7.76-4.49,70.36,70.36,0,0,1,18.6-6.22A71.33,71.33,0,0,1,209.12,267Z"/><path class="cls-21" d="M207.26,267A69.53,69.53,0,0,1,162.16,332a67.63,67.63,0,0,1-8.35,2.53A69.45,69.45,0,0,1,99.38,209.12a67.33,67.33,0,0,1,7.55-4.37,68.93,68.93,0,0,1,18.12-6.07,70.72,70.72,0,0,1,12.78-1.17A69.44,69.44,0,0,1,207.26,267Z"/><path class="cls-4" d="M153.81,334.54a69.84,69.84,0,0,1-36.62-1.25L75.3,236.72a69.5,69.5,0,0,1,24.08-27.6Z"/><path class="cls-4" d="M179,322.9a69.46,69.46,0,0,1-16.8,9.11L106.93,204.75a68.93,68.93,0,0,1,18.12-6.07Z"/><path class="cls-17" d="M137.83,270.62a3.66,3.66,0,0,1-1.7-6.91l37.28-19.5a3.66,3.66,0,0,1,3.39,6.49l-37.28,19.5A3.67,3.67,0,0,1,137.83,270.62Z"/><path class="cls-14" d="M152.08,267a14.26,14.26,0,1,1-14.26-14.25A14.25,14.25,0,0,1,152.08,267Z"/><path class="cls-14" d="M137.83,270.61a3.65,3.65,0,0,1-3.12-1.73l-29.37-47.57a3.66,3.66,0,0,1,6.23-3.84L140.94,265a3.65,3.65,0,0,1-3.11,5.58Z"/><path class="cls-22" d="M216.8,267a78.9,78.9,0,0,1-32.08,63.57L149.58,192.2a13.51,13.51,0,0,1-.43-3.41h0A79,79,0,0,1,216.8,267Z"/><path class="cls-23" d="M33.32,349.76H253.84c3.54,0,6.4-.86,6.4-1.91h0c0-1.06-2.86-1.92-6.4-1.92H33.32c-3.54,0-6.4.86-6.4,1.92h0C26.92,348.9,29.78,349.76,33.32,349.76Z"/><polygon class="cls-24" points="209.03 342.04 207.4 331.92 211.96 330.54 212.68 341.27 209.03 342.04"/><path class="cls-17" d="M212.85,340.18a1.68,1.68,0,0,1,.82.35,26.16,26.16,0,0,0,9,4.09c2.7.39,2.83,1.72-1,1.72s-6.56-.34-8.25-.29a50.26,50.26,0,0,1-5.41.29c-3.19,0-2.19-4.07-1-6a1.44,1.44,0,0,1,1.51-.8Z"/><polygon class="cls-24" points="194.38 332.61 200.73 324.56 204.82 326.98 197.41 334.77 194.38 332.61"/><path class="cls-17" d="M198.33,334.16a1.78,1.78,0,0,1,.3.84c.1,2.09,1.72,7.43,3.6,9.15s.68,2.19-2.43.72c-3.43-1.62-4.19-5.07-5.37-6.28a50.65,50.65,0,0,1-3.87-3.78c-2.16-2.35,1.51-4.37,3.68-4.8a1.42,1.42,0,0,1,1.61.56Z"/><path class="cls-25" d="M191.57,162s-1.24,8.29,1.16,12.1,2.75,4.39,2.75,4.39"/><path class="cls-26" d="M197.68,182.16a4.32,4.32,0,0,1-5.9-1.5c-.05-.06-.47-.78-2.69-4.29-1.57-2.48-2.06-5.86-2.14-8.82a34.62,34.62,0,0,1,.36-6.22,4.31,4.31,0,1,1,8.52,1.28,29,29,0,0,0-.28,4,17.79,17.79,0,0,0,.33,3.74,4.29,4.29,0,0,0,.49,1.39c2.45,3.89,2.81,4.49,2.81,4.49A4.3,4.3,0,0,1,197.68,182.16Z"/><path class="cls-27" d="M181.77,229.59c.9-12.36-3.26-43.07-5.4-55.3a3,3,0,0,1,3-3.55h25.41a3,3,0,0,1,2.92,2.25c2.91,11.09,4.76,56.6,4.76,56.6Z"/><path class="cls-26" d="M223.74,203.83c-.43-2.3-3.26-8.26-6.44-14.48-3.38-6.6-7.15-13.51-8.9-16.64a3.64,3.64,0,0,0-6.38,3.52c2.68,4.85,5.45,10,7.85,14.62,2.73,5.26,5.39,8.52,6.46,11.1-2,1.73-6.86,1.84-10.76,1.61-1.07-.13-5.21-.42-8,2.11a6.93,6.93,0,0,0-2.2,5.65c.08,2,.37,2.76,2.11,3.61a4.63,4.63,0,0,0,2.44.34c2-.24,2.18-1.33,2.2-3.68a8.84,8.84,0,0,1,.85-3.33s5.9,1.44,10.83,2.06,6.92-.35,8.73-2.39A4.82,4.82,0,0,0,223.74,203.83Z"/><path class="cls-28" d="M183.1,249.56s-3.73-6.85-1.33-20h30.68s.43,10-.27,20Z"/><path class="cls-25" d="M217.3,189.35l-3.58.72-3.85.78c-2.4-4.61-5.17-9.77-7.85-14.62a3.64,3.64,0,0,1,6.38-3.52C210.15,175.84,213.92,182.75,217.3,189.35Z"/><path class="cls-26" d="M182.74,173.6a3.63,3.63,0,0,0-4.41-2.66,133.3,133.3,0,0,0-19.17,5.94c-9.79,4.13-9.7,7.18-9.67,8.75,0,1.78.4,5.22,21.51,12.92a14,14,0,0,1-1.09,3.8c-1,1.77,0,3.46,1.09,5.18a2.71,2.71,0,0,0,2.2,1.3c1.29,0,2.9-1.64,3.13-3,.8-4.92.66-7.82.41-8.39h0v0c0-.05,0-.09-.07-.14a3.72,3.72,0,0,0-.27-.48c-.06-.09-.14-.17-.21-.26s-.15-.19-.24-.28a4.22,4.22,0,0,0-.46-.38l-.08-.06a3.26,3.26,0,0,0-.79-.4c-7.15-2.94-13.83-7.7-16.76-9.81a37.88,37.88,0,0,1,4.28-2A145.83,145.83,0,0,1,180.07,178,3.66,3.66,0,0,0,182.74,173.6Z"/><path class="cls-27" d="M217.87,187.76l-4.89.94-3.85.74h0l-3.24.62c-4.19-8.21-5.19-10.09-5.35-12.9-.17-3.17.69-4.74,2.75-5.88a4.26,4.26,0,0,1,5.8,1.66A140.55,140.55,0,0,1,217.87,187.76Z"/><path class="cls-28" d="M231.23,290.16c-.45,3-2.09,6.24-4.37,10.23-3.83,6.65-9.69,14-15,20.2-3.66,4.3-7,8-9.17,10.57-.94,1.09-1.65,2-2.07,2.55l-4.34-5.61c1.61-2.27,3.12-5.33,5-8.19l.15-.22c3.54-5.33,7.28-11.34,10.32-16.81a6.05,6.05,0,0,0,.32-.55c3.21-5.78,5.59-10.91,6-13.91.81-5.35-7.19-22-15.09-36.72q-1.37-2.53-2.7-5a4.21,4.21,0,0,1-.51-1.78c-.23-2.71,1.75-5.82,4.17-7.15,3-1.63,6.8-2.47,8.43.49C215.79,244.36,233.21,277.05,231.23,290.16Z"/><path class="cls-29" d="M211.91,320.59c-3.66,4.3-7,8-9.17,10.57-.34-3-.71-6.25-1.07-9.55-.08-.63-.14-1.27-.2-1.92,3.54-5.33,7.28-11.34,10.32-16.81C211.93,308.29,211.94,314.61,211.91,320.59Z"/><path class="cls-28" d="M211.12,291.8c-1.5-12.27-11.81-45.25-13.41-48.88-1.35-3.1-8.79-3.76-11.9-2.4a6.13,6.13,0,0,0-3.15,8.08c4.13,9.43,15.9,34.62,17.08,43.54.68,5.33,1.6,16.05,3.28,25.19,1.18,6.38,2.37,12.59,3.25,17.1.75,3.92.76,3.2.83,3.59l7.35-1.12S212.89,306.28,211.12,291.8Z"/><path class="cls-25" d="M180.07,178a145.83,145.83,0,0,0-17.94,5.58l-3-6.72a133.3,133.3,0,0,1,19.17-5.94,3.65,3.65,0,1,1,1.74,7.08Z"/><path class="cls-27" d="M178.38,170.84a3.87,3.87,0,0,1,4.65,3c.62,2.27-.95,4.06-3,5.25-2.51,1.47-3.35,1.75-13.88,5.37l-5.85-8.12C173.78,171.18,174.47,171.4,178.38,170.84Z"/><path class="cls-25" d="M195.88,170.38h-.58a13.64,13.64,0,0,1-8.35-2.84,34.62,34.62,0,0,1,.36-6.22,4.31,4.31,0,1,1,8.52,1.28,29,29,0,0,0-.28,4A17.79,17.79,0,0,0,195.88,170.38Z"/><path class="cls-26" d="M208.09,155.06c-1.72,7.9-6.13,13.7-13.7,13.7S182,163,180.69,155.06c-1.27-7.46,6.17-14.77,13.74-14.77S209.7,147.67,208.09,155.06Z"/><path class="cls-30" d="M209.12,338.07l0-.22c-2.07-12.83-5.21-32.23-6.79-44.42-1.16-8.88-12.15-35.29-16.29-44.71a1.72,1.72,0,0,1-.07-.21.36.36,0,0,0,0-.11c-.67-1.82-2.7-8.56-.77-19.15l.6.11c-1.91,10.43.09,17,.75,18.83,0,.05,0,.1.05.15a.5.5,0,0,0,0,.13c4.15,9.45,15.16,35.93,16.33,44.88,1.59,12.18,4.72,31.57,6.8,44.4l0,.22Z"/><path class="cls-31" d="M199.26,170.74c0,1.85-.73,5-5.59,5-3.53,0-8-1.5-9.61-4.35l-.35-.61Z"/><path class="cls-26" d="M185.12,170.74c1.3,2.26,5.18,3.73,8.55,3.73s4.37-1.67,4.37-3.73Z"/><path class="cls-32" d="M203.57,209s.18-2.11-2-5.14l2-1.18c2.53,3.75,2.28,6.47,2.28,6.65Z"/><path class="cls-33" d="M202,202.73a3,3,0,0,1,3.39.56c.73.83.39,1.94-.76,2.47a3,3,0,0,1-3.39-.55A1.54,1.54,0,0,1,202,202.73Z"/><path class="cls-34" d="M207.74,144.91c-4.12-6.66-14.32-7.22-16.31-7.11a5.89,5.89,0,0,0-4.31,2.23,15.72,15.72,0,0,1,0-2.06,3.14,3.14,0,0,0-.88,2.73A11.82,11.82,0,0,1,185.2,139a2.19,2.19,0,0,0,.6,2.19c-2.79.65-6.35,4.59-5.13,12.68.53,3.52,8.47.83,10.73-2.71a7.23,7.23,0,0,0,4.5,2.93,14.64,14.64,0,0,1-2.66-4.16c4.23,2.59,9.89,5.38,10.54,7.1,0,0,1.22-2.76.3-4.52a5.2,5.2,0,0,1,3.78,4.19S212.15,152,207.74,144.91Z"/><rect class="cls-30" x="198.92" y="229.17" width="0.61" height="21.02" transform="translate(-35.68 34.84) rotate(-9.18)"/><path class="cls-30" d="M200.27,246.16l-.1-.6a3.31,3.31,0,0,0,2-1.18,2.74,2.74,0,0,0,.41-2.13l-2.13-13.15.61-.1,2.12,13.15a3.33,3.33,0,0,1-.52,2.6A3.94,3.94,0,0,1,200.27,246.16Z"/><path class="cls-26" d="M180.2,154.27a4.77,4.77,0,0,0,.05,4,1.9,1.9,0,0,0,3.43-.09l1.78-4a1.9,1.9,0,0,0-2.21-2.62A4.75,4.75,0,0,0,180.2,154.27Z"/><circle class="cls-3" cx="87.13" cy="322.73" r="23.43"/><path class="cls-4" d="M102.51,316.79a11.12,11.12,0,0,1-3.22.88,5.61,5.61,0,0,0,2.47-3.1,11.38,11.38,0,0,1-3.56,1.36,5.6,5.6,0,0,0-9.69,3.83,5.4,5.4,0,0,0,.15,1.28,15.9,15.9,0,0,1-11.55-5.85,5.62,5.62,0,0,0,1.74,7.47,5.48,5.48,0,0,1-2.54-.7V322a5.59,5.59,0,0,0,4.49,5.49,5.49,5.49,0,0,1-1.47.2,5.36,5.36,0,0,1-1.06-.1,5.61,5.61,0,0,0,5.24,3.89,11.28,11.28,0,0,1-7,2.4,11.9,11.9,0,0,1-1.34-.08,15.87,15.87,0,0,0,8.59,2.52c10.3,0,15.93-8.54,15.93-15.94,0-.24,0-.48,0-.72a11.35,11.35,0,0,0,2.8-2.9Z"/><circle class="cls-14" cx="234.6" cy="121.17" r="24.07"/><path class="cls-4" d="M248.27,120.86v9.93h-5.75v-9.26c0-2.33-.83-3.92-2.91-3.92a3.16,3.16,0,0,0-3,2.11,4,4,0,0,0-.19,1.4v9.66h-5.75s.08-15.68,0-17.3h5.75v2.45l0,.06h0v-.06a5.73,5.73,0,0,1,5.19-2.85c3.78,0,6.62,2.47,6.62,7.78Zm-23.58-15.72a3,3,0,1,0-.07,6h0a3,3,0,1,0,0-6Zm-2.91,25.65h5.75V113.48h-5.75Z"/></g></g></svg>